<svg width="38" height="30" viewBox="0 0 38 30" fill="none" xmlns="http://www.w3.org/2000/svg">
<path fill-rule="evenodd" clip-rule="evenodd" d="M25.3327 11.25C25.3327 12.5761 24.6654 13.8479 23.4777 14.7855C22.29 15.7232 20.6791 16.25 18.9993 16.25C17.3196 16.25 15.7087 15.7232 14.521 14.7855C13.3333 13.8479 12.666 12.5761 12.666 11.25C12.666 9.92392 13.3333 8.65215 14.521 7.71447C15.7087 6.77678 17.3196 6.25 18.9993 6.25C20.6791 6.25 22.29 6.77678 23.4777 7.71447C24.6654 8.65215 25.3327 9.92392 25.3327 11.25ZM22.166 11.25C22.166 11.913 21.8324 12.5489 21.2385 13.0178C20.6447 13.4866 19.8392 13.75 18.9993 13.75C18.1595 13.75 17.354 13.4866 16.7602 13.0178C16.1663 12.5489 15.8327 11.913 15.8327 11.25C15.8327 10.587 16.1663 9.95107 16.7602 9.48223C17.354 9.01339 18.1595 8.75 18.9993 8.75C19.8392 8.75 20.6447 9.01339 21.2385 9.48223C21.8324 9.95107 22.166 10.587 22.166 11.25Z" fill="black"/>
<path fill-rule="evenodd" clip-rule="evenodd" d="M18.9997 1.25C9.38093 1.25 1.58301 7.40625 1.58301 15C1.58301 22.5938 9.38093 28.75 18.9997 28.75C28.6184 28.75 36.4163 22.5938 36.4163 15C36.4163 7.40625 28.6184 1.25 18.9997 1.25ZM4.74967 15C4.74967 17.6125 5.87859 20.0175 7.77068 21.9275C9.09946 20.5499 10.8137 19.4334 12.7794 18.6654C14.7452 17.8973 16.9093 17.4985 19.1026 17.5C21.2675 17.4984 23.4044 17.8869 25.3503 18.636C27.2963 19.385 29 20.4749 30.3316 21.8225C31.7035 20.402 32.6272 18.744 33.0263 16.9857C33.4254 15.2275 33.2884 13.4194 32.6266 11.7112C31.9649 10.003 30.7974 8.44381 29.2209 7.16255C27.6443 5.88128 25.7039 4.91482 23.5603 4.34314C21.4167 3.77145 19.1314 3.61096 16.8936 3.87497C14.6558 4.13897 12.5298 4.81986 10.6916 5.86132C8.85327 6.90277 7.35554 8.27484 6.32229 9.86399C5.28903 11.4532 4.74996 13.2137 4.74967 15ZM18.9997 26.25C15.7284 26.2539 12.5559 25.3654 10.019 23.735C11.0401 22.5809 12.3993 21.6386 13.9808 20.9884C15.5623 20.3381 17.3194 19.999 19.1026 20C20.8635 19.9989 22.5994 20.3295 24.166 20.9643C25.7326 21.5991 27.0848 22.5198 28.1102 23.65C25.5536 25.3334 22.3288 26.2537 18.9997 26.25Z" fill="black"/>
</svg>
